<?xml version="1.0" standalone="no"?>
<!DOCTYPE svg PUBLIC "-//W3C//DTD SVG 20010904//EN"
 "http://www.w3.org/TR/2001/REC-SVG-20010904/DTD/svg10.dtd">
<svg version="1.0" xmlns="http://www.w3.org/2000/svg"
 width="1024.000000pt" height="1024.000000pt" viewBox="0 0 1024.000000 1024.000000"
 preserveAspectRatio="xMidYMid meet">
<metadata>
Created by potrace 1.14, written by Peter Selinger 2001-2017
</metadata>
<g transform="translate(0.000000,1024.000000) scale(0.100000,-0.100000)"
fill="#000000" stroke="none">
<path d="M4899 8836 c-2 -2 -44 -6 -94 -10 -49 -4 -103 -8 -120 -11 -16 -2
-66 -9 -110 -15 -268 -37 -632 -139 -895 -250 -115 -49 -323 -151 -342 -168
-10 -8 -18 -12 -18 -9 0 6 -47 -21 -125 -71 -11 -6 -35 -20 -52 -29 -18 -9
-33 -20 -33 -25 0 -4 -4 -8 -10 -8 -5 0 -29 -14 -52 -30 -24 -17 -54 -38 -68
-48 -80 -54 -205 -152 -261 -204 -11 -10 -22 -18 -26 -18 -5 0 -25 -18 -45
-40 -21 -22 -38 -37 -38 -35 0 7 -238 -234 -264 -266 -11 -13 -35 -42 -55 -65
-75 -84 -91 -104 -91 -113 0 -5 -3 -11 -7 -13 -12 -5 -73 -84 -118 -153 -22
-33 -43 -62 -46 -65 -3 -3 -23 -33 -45 -68 -39 -63 -47 -76 -98 -162 -24 -41
-169 -328 -172 -340 0 -3 -7 -18 -14 -35 -7 -16 -14 -32 -15 -35 0 -3 -19 -52
-42 -110 -61 -159 -148 -452 -168 -575 -3 -16 -12 -66 -20 -111 -8 -44 -17
-103 -20 -130 -3 -27 -8 -60 -10 -74 -27 -147 -26 -692 1 -865 4 -22 8 -53 9
-70 1 -16 5 -43 8 -60 4 -16 9 -46 11 -65 3 -19 9 -54 14 -77 6 -24 8 -43 6
-43 -3 0 0 -8 5 -17 5 -10 12 -34 15 -53 3 -19 10 -50 15 -68 5 -18 10 -33 9
-35 -1 -6 26 -103 54 -192 17 -55 33 -104 34 -110 5 -18 55 -149 71 -185 8
-19 19 -44 23 -55 60 -141 263 -523 290 -545 4 -3 15 -21 26 -39 10 -19 24
-42 31 -50 60 -79 83 -113 83 -120 0 -5 4 -11 8 -13 5 -1 31 -32 58 -68 27
-36 58 -75 69 -86 11 -12 43 -48 70 -80 52 -60 248 -257 307 -309 148 -131
355 -287 490 -370 21 -13 123 -73 163 -97 42 -24 281 -143 335 -166 25 -11 61
-26 80 -34 38 -17 182 -72 190 -73 3 -1 46 -14 95 -30 50 -16 95 -30 100 -31
6 -1 37 -10 70 -19 33 -9 69 -18 80 -20 11 -1 40 -8 65 -15 25 -7 56 -14 70
-16 14 -2 34 -6 46 -9 12 -3 39 -7 60 -10 21 -3 49 -8 62 -11 32 -7 162 -23
257 -32 164 -15 592 -8 745 13 19 2 55 7 80 10 25 3 52 7 60 9 8 1 38 6 65 10
75 12 301 64 380 88 74 23 78 24 110 32 58 14 244 84 298 112 16 8 33 14 38
14 5 0 56 23 114 50 58 28 109 50 114 50 5 0 11 3 13 8 2 4 31 22 66 39 77 40
106 57 112 63 3 3 15 11 28 18 12 6 32 18 45 25 12 6 24 14 27 17 3 3 30 21
60 40 30 19 60 38 65 42 6 4 57 42 115 84 58 42 113 84 122 93 9 9 23 21 30
26 74 56 388 357 388 372 0 3 10 15 23 27 12 12 40 44 62 70 22 26 47 55 55
65 8 9 23 28 33 41 10 14 31 43 48 65 47 63 167 241 201 298 62 105 73 125
142 262 85 167 104 210 166 380 45 122 114 349 124 405 3 14 5 25 6 25 5 0 59
292 66 355 3 25 7 54 9 65 32 156 25 746 -11 945 -2 14 -7 48 -10 75 -3 28
-10 66 -14 85 -5 19 -12 50 -15 67 -3 18 -12 63 -21 100 -9 38 -17 75 -19 83
-27 116 -131 424 -184 545 -41 92 -156 321 -163 323 -4 2 -8 9 -8 15 0 22
-213 358 -232 365 -4 2 -8 8 -8 13 0 9 -107 148 -174 227 -95 112 -269 288
-382 387 -37 33 -75 67 -84 75 -9 8 -24 20 -32 25 -9 6 -52 38 -96 73 -45 34
-85 62 -89 62 -5 0 -15 9 -23 20 -8 11 -18 20 -22 20 -5 0 -48 26 -96 58 -48
32 -94 61 -102 65 -8 4 -33 18 -55 32 -37 22 -336 172 -395 197 -14 6 -37 17
-52 25 -16 8 -28 12 -28 8 0 -3 -13 1 -28 9 -28 14 -163 64 -192 71 -8 2 -35
10 -60 18 -25 8 -65 20 -90 27 -25 7 -56 16 -70 21 -25 8 -57 15 -115 25 -16
2 -43 9 -60 14 -16 5 -43 12 -60 14 -163 27 -208 33 -285 42 -30 3 -68 8 -85
11 -34 5 -551 13 -556 9z"/>
</g>
</svg>
